<svg width="38" height="23" viewBox="0 0 38 23" fill="none" xmlns="http://www.w3.org/2000/svg">
<path d="M34 0.00292969H4C1.79086 0.00292969 0 1.79379 0 4.00293V18.0029C0 20.2121 1.79086 22.0029 4 22.0029H34C36.2091 22.0029 38 20.2121 38 18.0029V4.00293C38 1.79379 36.2091 0.00292969 34 0.00292969Z" fill="white"/>
<path d="M9.93723 8.53817L10.0536 8.53856L10.1462 8.50703L10.2388 8.4755L10.3208 8.39236L10.4027 8.30928L10.4458 8.19848L10.489 8.08774L10.4905 7.92468L10.4921 7.76172L10.4537 7.698L10.4153 7.63433L10.3486 7.59301L10.2818 7.55164H10.1376H9.99337L9.8952 7.59561L9.79702 7.63953L9.74005 7.7006L9.68308 7.76172L9.63828 7.86721L9.59353 7.97269L9.58507 8.13703L9.57666 8.30137L9.61825 8.38307L9.65996 8.46471L9.74038 8.50122L9.82075 8.53767L9.93723 8.53817Z" fill="#B3131B"/>
<path d="M28.4979 13.2195H28.9166V13.0914V12.9632L28.9649 12.6454C28.9915 12.4706 29.0352 12.1937 29.0622 12.0303C29.0892 11.8667 29.1228 11.6595 29.1369 11.5698C29.151 11.4802 29.1884 11.2859 29.22 11.1382C29.2517 10.9905 29.2912 10.8309 29.3078 10.7833C29.3245 10.7359 29.3382 10.686 29.3383 10.6727C29.3386 10.6593 29.3742 10.5731 29.4177 10.4812L29.4967 10.3139L29.601 10.1754L29.7053 10.0369L29.8194 9.95107C29.8821 9.90383 29.9831 9.84127 30.0437 9.81189L30.1539 9.75851L30.3936 9.76017L30.6334 9.76189L30.7278 9.79215L30.8222 9.82246L30.8381 9.81261L30.854 9.80277L30.8549 9.74159C30.8553 9.7079 30.8758 9.58267 30.9005 9.46319L30.9453 9.24602L30.8949 9.22627C30.8672 9.21543 30.8014 9.19297 30.7486 9.17638L30.6527 9.14612L30.48 9.14662L30.3074 9.147L30.1667 9.19657L30.026 9.24602L29.9203 9.30974L29.8147 9.37346L29.6773 9.51734L29.54 9.66116L29.4662 9.77279C29.4256 9.83419 29.3899 9.88165 29.3868 9.87827C29.3837 9.87495 29.4058 9.74701 29.4358 9.59406C29.4658 9.44106 29.4908 9.29646 29.4913 9.27273L29.4921 9.22953H29.1372H28.7824V9.24181C28.7824 9.24851 28.7647 9.37153 28.743 9.51513C28.7214 9.65878 28.6779 9.93597 28.6466 10.1312C28.6151 10.3263 28.5635 10.6414 28.5319 10.8314C28.5003 11.0213 28.4526 11.2932 28.426 11.4356C28.3994 11.578 28.3521 11.8284 28.3209 11.9919C28.2897 12.1554 28.2385 12.4187 28.207 12.577C28.1756 12.7352 28.1339 12.9446 28.1145 13.0421L28.0791 13.2195H28.4979Z" fill="#B3131B"/>
<path d="M18.7748 13.2196H19.1843L19.1966 13.0463C19.2034 12.951 19.2265 12.7589 19.2481 12.6195C19.2697 12.48 19.3139 12.202 19.3462 12.0015C19.3787 11.801 19.4388 11.4674 19.48 11.26C19.5213 11.0527 19.5678 10.8466 19.5835 10.802C19.5992 10.7575 19.6121 10.7092 19.6121 10.6948C19.6121 10.6803 19.6429 10.6015 19.6805 10.5197C19.7181 10.4379 19.7883 10.3127 19.8364 10.2414L19.9238 10.1117L20.0408 10.0033L20.1579 9.89497L20.3022 9.82605L20.4465 9.75707L20.6672 9.75829L20.8877 9.75945L20.9962 9.79181C21.0558 9.80962 21.1097 9.82422 21.116 9.82422C21.1223 9.82422 21.1275 9.80387 21.1275 9.77892C21.1275 9.75403 21.1491 9.62769 21.1754 9.49814C21.2018 9.36865 21.2234 9.25724 21.2234 9.25055C21.2234 9.24386 21.1608 9.21935 21.0843 9.19612C21.0078 9.17289 20.9021 9.14855 20.8494 9.14196L20.7534 9.13013L20.6288 9.1522C20.5602 9.16431 20.4582 9.19108 20.4022 9.21172C20.3461 9.23229 20.2536 9.27898 20.1965 9.31549C20.1395 9.35205 20.0507 9.42319 19.9993 9.47358C19.9478 9.52403 19.8613 9.62575 19.807 9.6996C19.7527 9.77344 19.6959 9.85116 19.6808 9.87224L19.6534 9.91057L19.6701 9.83391C19.6792 9.79164 19.7048 9.65352 19.7268 9.52696C19.7488 9.40034 19.7716 9.28158 19.7771 9.26322L19.7873 9.22958H19.4216H19.0558V9.27583C19.0558 9.30127 19.0342 9.45444 19.0078 9.61629C18.9814 9.7782 18.9379 10.0487 18.9111 10.2175C18.8844 10.3863 18.8368 10.6798 18.8055 10.8697C18.7742 11.0596 18.7266 11.3316 18.6998 11.474C18.6729 11.6164 18.6254 11.8667 18.594 12.0303C18.5627 12.1938 18.5105 12.4614 18.4782 12.625C18.4459 12.7885 18.4073 12.9816 18.3924 13.0541C18.3774 13.1266 18.3652 13.1935 18.3652 13.2027V13.2196H18.7748Z" fill="#B3131B"/>
<path d="M9.12499 13.2195H9.53759L9.5492 13.1892C9.55567 13.1724 9.56087 13.1287 9.56087 13.0919C9.56087 13.0551 9.58687 12.8637 9.61851 12.6666C9.65026 12.4695 9.70264 12.1486 9.735 11.9534C9.76731 11.7583 9.81504 11.4734 9.8411 11.3204C9.86715 11.1675 9.91339 10.9128 9.94393 10.7545C9.97446 10.5963 10.0214 10.3502 10.0481 10.2078C10.0749 10.0654 10.1275 9.79442 10.1651 9.60562C10.2026 9.41683 10.238 9.25487 10.2437 9.24563L10.2542 9.22876L9.83695 9.2339L9.41971 9.23905L9.38486 9.48847C9.36583 9.62565 9.32402 9.89758 9.29204 10.0927C9.26013 10.2879 9.21178 10.5858 9.18462 10.7545C9.15746 10.9233 9.11023 11.1952 9.07953 11.3588C9.04883 11.5223 9.00181 11.7726 8.97498 11.915C8.94821 12.0575 8.90014 12.3078 8.86817 12.4714C8.8362 12.6349 8.79333 12.8507 8.77286 12.9509C8.75234 13.0512 8.73038 13.1526 8.72396 13.1763L8.7124 13.2195H9.12499Z" fill="#B3131B"/>
<path d="M3.96614 13.2192H4.43217L4.46563 13.0131C4.484 12.8996 4.51995 12.6816 4.54545 12.5287C4.57095 12.3757 4.61847 12.0908 4.65094 11.8957C4.68346 11.7005 4.73225 11.4113 4.7593 11.2531C4.78635 11.0948 4.82938 10.8493 4.85483 10.7075C4.88033 10.5657 4.90605 10.4449 4.91191 10.4389L4.9227 10.4282H6.17597H7.42918L7.44312 10.4421L7.45706 10.456L7.43527 10.5668C7.42338 10.6277 7.38803 10.8156 7.35678 10.9845C7.32552 11.1533 7.27297 11.4382 7.23995 11.6175C7.20704 11.7969 7.15936 12.0515 7.13408 12.1834C7.10874 12.3153 7.05752 12.5915 7.02024 12.7972C6.98301 13.003 6.95259 13.1821 6.9527 13.1953L6.95292 13.2192H7.42089H7.88891L7.90959 13.0994C7.92104 13.0334 7.9393 12.9147 7.95036 12.8356C7.96131 12.7565 7.98792 12.5881 8.00933 12.4615C8.03073 12.335 8.07349 12.0846 8.10441 11.9052C8.13528 11.7259 8.18705 11.4195 8.21936 11.2242C8.25166 11.029 8.29956 10.7442 8.32589 10.5913C8.35211 10.4382 8.39896 10.1793 8.42989 10.0158C8.46081 9.85221 8.51236 9.57602 8.54444 9.40189C8.57653 9.22787 8.62448 8.96457 8.65114 8.81682C8.67781 8.66913 8.72637 8.40151 8.75912 8.22218C8.79187 8.04285 8.83319 7.83354 8.85094 7.75698L8.88325 7.61792H8.40942H7.93554L7.92265 7.70908C7.91562 7.75914 7.89272 7.89947 7.87181 8.02078C7.85085 8.14214 7.8129 8.35787 7.78735 8.50031C7.76179 8.6428 7.71511 8.91467 7.68358 9.10463C7.65205 9.29447 7.61189 9.54588 7.5943 9.66325L7.56233 9.87661L6.86674 9.89071L6.1711 9.90476L5.58852 9.89093C5.26809 9.88335 5.00412 9.87555 5.00191 9.87378C4.99975 9.8719 5.01065 9.79739 5.02614 9.70811C5.04168 9.61884 5.071 9.46373 5.09135 9.36356C5.11171 9.26333 5.15032 9.0648 5.17709 8.92231C5.20392 8.77993 5.23423 8.60297 5.24458 8.52913C5.25486 8.45528 5.27649 8.33226 5.29259 8.2557C5.30869 8.17926 5.33922 8.01813 5.36046 7.8977C5.38165 7.77728 5.40427 7.66505 5.41074 7.64834L5.42236 7.61792H4.95235H4.48228L4.45225 7.7858C4.43565 7.87812 4.41358 8.00972 4.40318 8.07831C4.39273 8.1469 4.35771 8.367 4.32535 8.56746C4.29299 8.76792 4.2452 9.06574 4.21915 9.22925C4.1931 9.39282 4.14575 9.69064 4.11388 9.89104C4.08191 10.0916 4.02931 10.4023 3.99684 10.5816C3.96442 10.761 3.91746 11.0157 3.89246 11.1475C3.86751 11.2794 3.82 11.5298 3.78681 11.7038C3.75367 11.878 3.70516 12.124 3.67922 12.2506C3.65322 12.3771 3.62451 12.5239 3.61544 12.5766C3.60626 12.6294 3.57661 12.7815 3.5494 12.9147C3.52224 13.0479 3.5 13.1709 3.5 13.1881V13.2192H3.96614Z" fill="#B3131B"/>
<path d="M31.871 13.3127L32.0532 13.315L32.2259 13.287C32.3208 13.2716 32.4416 13.2467 32.4944 13.2318C32.5471 13.2169 32.6422 13.1782 32.7054 13.1457L32.8205 13.0868L32.9196 12.9996L33.0185 12.9124L33.1228 12.7734C33.1802 12.6969 33.2321 12.6214 33.2382 12.6055L33.2493 12.5767L33.2397 12.6727C33.2343 12.7254 33.2225 12.8117 33.2131 12.8645C33.2038 12.9173 33.1906 13.0187 33.1836 13.0899L33.1709 13.2194H33.9235V12.9604L33.9808 12.4712C34.0123 12.2022 34.059 11.844 34.0844 11.6752C34.1099 11.5063 34.1492 11.2647 34.1718 11.1381C34.1943 11.0115 34.2343 10.7827 34.2605 10.6297C34.2869 10.4768 34.3343 10.2091 34.3661 10.0351C34.3978 9.86096 34.4486 9.58477 34.479 9.42126C34.5093 9.25769 34.5565 9.00302 34.5838 8.85533C34.6111 8.70764 34.66 8.44865 34.6924 8.27989C34.725 8.11106 34.7724 7.87365 34.7979 7.75229C34.8234 7.63104 34.8443 7.52522 34.8442 7.51737V7.50293H34.0231L34.011 7.62285C34.0044 7.68879 33.9729 7.90673 33.9412 8.10725C33.9095 8.30765 33.8577 8.62704 33.8262 8.81694C33.7946 9.00684 33.7643 9.19104 33.7587 9.22622L33.7484 9.29016L33.7161 9.27639C33.6983 9.26881 33.6016 9.24198 33.5015 9.21681L33.3193 9.17107L33.0699 9.15165L32.8205 9.13224L32.6095 9.15187L32.3985 9.17157L32.2067 9.22008L32.0148 9.26853L31.8326 9.35743L31.6503 9.44632L31.5161 9.54566L31.3818 9.64506L31.2658 9.76947C31.202 9.83784 31.1099 9.95096 31.061 10.0208L30.9723 10.1478L30.868 10.3648C30.8107 10.4841 30.7409 10.6422 30.7129 10.716C30.685 10.7899 30.6357 10.9536 30.6034 11.0798L30.5447 11.3094L30.5157 11.6074L30.4868 11.9054L30.5085 12.1451L30.5303 12.3849L30.5559 12.4712C30.5701 12.5187 30.5998 12.6033 30.6221 12.6592L30.6626 12.7609L30.7365 12.8608L30.8104 12.9608L30.8946 13.0299L30.979 13.0989L31.0941 13.1561C31.1574 13.1875 31.2635 13.2282 31.33 13.2464C31.3965 13.2646 31.5044 13.2865 31.5698 13.2949C31.6352 13.3034 31.7707 13.3115 31.871 13.3127ZM32.198 12.7685L32.0532 12.7761L31.9555 12.7585C31.9017 12.7489 31.8157 12.7229 31.7643 12.7009L31.6708 12.6609L31.5922 12.5964L31.5136 12.532L31.3967 12.3082L31.37 12.1835L31.3435 12.0588L31.3457 11.8094L31.348 11.5601L31.3789 11.3394L31.4098 11.1189L31.4579 10.9654C31.4843 10.881 31.5061 10.8014 31.5062 10.7884C31.5064 10.7755 31.5324 10.7065 31.5642 10.635C31.596 10.5635 31.649 10.4533 31.6821 10.3899C31.7151 10.3266 31.777 10.228 31.8194 10.1707C31.8619 10.1134 31.9377 10.027 31.9877 9.97878C32.0377 9.93066 32.1172 9.86738 32.1645 9.83834L32.2503 9.78551L32.4011 9.73329L32.5519 9.68107L32.8684 9.68091H33.185L33.3672 9.73152C33.4674 9.75929 33.5739 9.79154 33.6037 9.80316L33.6579 9.82423L33.6474 9.87689C33.6416 9.90588 33.6187 10.0332 33.5967 10.1597C33.5747 10.2863 33.5312 10.5281 33.5002 10.6969C33.4692 10.8657 33.4215 11.1204 33.3942 11.2628C33.367 11.4052 33.3276 11.5865 33.3065 11.6656C33.2856 11.7447 33.2559 11.8543 33.2407 11.9091C33.2255 11.9639 33.1893 12.059 33.1603 12.1201C33.1312 12.1814 33.0804 12.2703 33.0473 12.3178C33.0143 12.3652 32.9584 12.4311 32.9231 12.4639C32.8877 12.4969 32.8114 12.5553 32.7534 12.5939L32.6479 12.664L32.3429 12.7608L32.198 12.7685Z" fill="#B3131B"/>
<path d="M25.387 13.3055L25.6459 13.298L25.809 13.2563L25.972 13.2145L26.0776 13.1647C26.1356 13.1373 26.2305 13.0832 26.2885 13.0444C26.3466 13.0056 26.4365 12.932 26.4882 12.8807C26.5399 12.8293 26.6166 12.7418 26.6586 12.6862C26.7007 12.6305 26.7376 12.5875 26.7407 12.5906C26.7439 12.5937 26.7342 12.6824 26.7192 12.7877C26.7043 12.8931 26.692 13.0332 26.6917 13.0991L26.6914 13.219H27.3955L27.4063 12.9457L27.417 12.6723L27.4672 12.3174C27.4949 12.1222 27.5395 11.833 27.5665 11.6748C27.5934 11.5166 27.6401 11.249 27.6704 11.0802C27.7007 10.9113 27.7486 10.6481 27.7769 10.4951L27.8284 10.217L27.8302 9.97676L27.8319 9.73647L27.7776 9.62546L27.7232 9.51439L27.6496 9.4437L27.5759 9.37295L27.455 9.31172L27.334 9.25038L26.9735 9.17017L26.7254 9.15131L26.4772 9.13245L26.1575 9.15225C25.9816 9.16309 25.7342 9.18455 25.6076 9.19998L25.3774 9.22786L25.0637 9.22908L25.0408 9.33943C25.0283 9.40005 24.9934 9.54415 24.9633 9.6597C24.9332 9.77519 24.9114 9.87243 24.9148 9.87586C24.9182 9.87929 25.0021 9.86021 25.1012 9.83355C25.2003 9.80683 25.411 9.76302 25.5693 9.73603L25.857 9.68702L26.1159 9.6764L26.3749 9.66567L26.7085 9.72419L26.8198 9.77912L26.9312 9.8341L26.9935 9.92703L27.0559 10.0199L27.055 10.1664L27.0541 10.3129L27.0211 10.4736L26.988 10.6344L26.2978 10.6369L25.6076 10.6394L25.3817 10.7013C25.2575 10.7354 25.1199 10.7806 25.076 10.8018C25.0321 10.8231 24.9882 10.8404 24.9784 10.8404C24.9686 10.8404 24.8947 10.8814 24.8141 10.9315L24.6677 11.0225L24.5523 11.1377C24.4888 11.201 24.4078 11.296 24.3722 11.3488C24.3365 11.4015 24.2786 11.5117 24.2436 11.5936L24.1797 11.7426L24.1504 11.9101L24.1211 12.0776V12.4291L24.149 12.5755L24.1771 12.7218L24.229 12.8172C24.2576 12.8697 24.31 12.9466 24.3455 12.9881L24.4101 13.0635L24.5248 13.1332L24.6395 13.2029L24.7709 13.24C24.8431 13.2605 24.953 13.2852 25.0152 13.2951L25.1282 13.3129L25.3871 13.3055H25.387ZM25.6268 12.7691L25.4733 12.7771L25.3716 12.7512C25.3158 12.737 25.2309 12.7052 25.1831 12.6807L25.0963 12.636L25.0489 12.5797C25.0228 12.5486 24.983 12.4878 24.9604 12.4444L24.9193 12.3654L24.9113 12.181L24.9031 11.9966L24.9357 11.8848C24.9535 11.8232 24.9955 11.7164 25.0289 11.6475L25.0897 11.5221L25.206 11.4067L25.3222 11.2912L25.4457 11.2317L25.5692 11.1723L25.7226 11.1358L25.8761 11.0993H26.8353L26.8656 11.1119L26.8959 11.1244L26.8704 11.275C26.8563 11.3577 26.8229 11.5075 26.7959 11.6077C26.7691 11.708 26.7216 11.8553 26.6905 11.9351C26.6593 12.015 26.6338 12.0855 26.6338 12.092C26.6338 12.0984 26.6023 12.1566 26.5637 12.2212L26.4937 12.3389L26.3787 12.4529C26.3155 12.5155 26.2567 12.5668 26.2482 12.5668C26.2397 12.5668 26.2009 12.5884 26.162 12.6148L26.0913 12.6627L25.9357 12.7119L25.7802 12.7611L25.6268 12.7691Z" fill="#B3131B"/>
<path d="M22.2319 13.3125L22.443 13.3148L22.6826 13.2864C22.8144 13.2708 22.9899 13.245 23.0726 13.2289C23.1552 13.2129 23.289 13.1811 23.3699 13.1583C23.4508 13.1354 23.524 13.1107 23.5325 13.1034C23.5411 13.096 23.5639 13.0089 23.5833 12.9099C23.6027 12.8109 23.6271 12.678 23.6376 12.6147C23.648 12.5514 23.6534 12.4962 23.6496 12.4921C23.6457 12.4879 23.6316 12.4933 23.6182 12.5039C23.6047 12.5146 23.5106 12.5543 23.409 12.592L23.2243 12.6606L22.9613 12.7115L22.6982 12.7625L22.4746 12.7549L22.251 12.7472L22.1239 12.7032L21.9969 12.6591L21.8987 12.5733L21.8006 12.4874L21.7354 12.3688L21.6704 12.2502L21.6393 12.0916L21.6083 11.9329L21.6086 11.7271L21.6087 11.5213L21.6464 11.272L21.6841 11.0226L21.7239 10.8883C21.7459 10.8144 21.7707 10.7281 21.7791 10.6965C21.7876 10.6648 21.8227 10.5742 21.8573 10.495C21.8919 10.4159 21.9536 10.2936 21.9944 10.2233L22.0687 10.0954L22.1599 10.0009L22.2511 9.90638L22.3476 9.84653L22.4442 9.78663L22.5682 9.7484C22.6364 9.72738 22.757 9.70011 22.8361 9.68784L22.98 9.66538L23.191 9.676L23.402 9.68656L23.6513 9.73651L23.9007 9.78635L24.0021 9.82418C24.0579 9.84498 24.106 9.86207 24.109 9.86207C24.1119 9.86207 24.1253 9.79083 24.1387 9.70377C24.1521 9.61676 24.1759 9.47355 24.1916 9.3856C24.2073 9.29754 24.2164 9.22176 24.2117 9.21717C24.2071 9.21252 24.1322 9.20063 24.0452 9.19073C23.9582 9.18083 23.7218 9.16324 23.5199 9.15157L23.1526 9.13049L22.8937 9.15035L22.6347 9.17026L22.4429 9.21053L22.2511 9.25086L22.1275 9.30025C22.0596 9.32741 21.9601 9.37647 21.9064 9.40922C21.8527 9.44202 21.7844 9.48605 21.7545 9.50713C21.7247 9.52825 21.6342 9.61056 21.5533 9.6901L21.4064 9.83469L21.3244 9.95483C21.2793 10.0209 21.2013 10.1587 21.151 10.2611L21.0596 10.4471L20.9895 10.6485C20.9511 10.7593 20.8972 10.9405 20.8701 11.0513L20.8206 11.2528L20.8026 11.435L20.7847 11.6172L20.7848 11.857L20.7851 12.0968L20.8031 12.2363L20.8212 12.3758L20.8787 12.5192L20.9361 12.6627L21.0025 12.7664L21.0689 12.8701L21.1744 12.974L21.2799 13.0779L21.3915 13.1369L21.5032 13.1959L21.6498 13.2367C21.7304 13.259 21.847 13.2847 21.9087 13.2937C21.9705 13.3028 22.1161 13.3112 22.2322 13.3125H22.2319Z" fill="#B3131B"/>
<path d="M16.131 13.3123L16.3421 13.3148L16.553 13.2955C16.6691 13.2849 16.859 13.2629 16.975 13.2465C17.0911 13.2302 17.2916 13.1936 17.4206 13.1652L17.6551 13.1136L17.6668 13.0271C17.6732 12.9796 17.6995 12.8381 17.7253 12.7127L17.7722 12.4845L17.7618 12.4742L17.7515 12.4639L17.6798 12.4985C17.6404 12.5175 17.5175 12.563 17.4069 12.5994L17.2056 12.6657L16.9944 12.7067L16.7833 12.7476L16.4476 12.7483L16.1118 12.7488L15.9967 12.7121C15.9335 12.6919 15.8404 12.655 15.7899 12.6299L15.6981 12.5845L15.5465 12.4475L15.4874 12.3443L15.4283 12.2409L15.3912 12.1113L15.3541 11.9817L15.3539 11.7419L15.3537 11.502L15.3865 11.2881L15.4195 11.0741L15.9967 11.0471L17.0638 11.054L18.1308 11.0608L18.163 10.9242C18.1808 10.849 18.2079 10.6936 18.2233 10.5789L18.2513 10.3702L18.2519 10.1948L18.2525 10.0193L18.2221 9.88824L18.1917 9.75725L18.1414 9.67052C18.1138 9.62284 18.0651 9.5537 18.0333 9.51686C18.0014 9.48007 17.9445 9.42819 17.9068 9.40158C17.8691 9.37497 17.7951 9.33022 17.7424 9.30218L17.6464 9.25118L17.4789 9.2108L17.3113 9.17048L17.1049 9.15073L16.8983 9.13098L16.7065 9.14348L16.5147 9.15593L16.2845 9.20012L16.0543 9.24438L15.9104 9.30185C15.8313 9.33343 15.7104 9.39118 15.6419 9.43007C15.5733 9.46895 15.4784 9.53223 15.4309 9.57068C15.3834 9.60918 15.3012 9.68396 15.2482 9.7369C15.1952 9.78989 15.1168 9.88492 15.074 9.94825C15.0312 10.0116 14.9656 10.1238 14.9282 10.1976C14.8908 10.2715 14.842 10.3751 14.8199 10.4278C14.7977 10.4805 14.7574 10.5885 14.7304 10.6676C14.7033 10.7467 14.6607 10.8978 14.6358 11.0033C14.6109 11.1088 14.5768 11.2824 14.5599 11.3892L14.5293 11.5834L14.5296 11.8688L14.5299 12.1542L14.5591 12.2789C14.575 12.3475 14.6057 12.4511 14.6271 12.5091C14.6486 12.5671 14.6883 12.6535 14.7153 12.7009C14.7423 12.7484 14.8 12.8248 14.8435 12.8708C14.887 12.9168 14.9657 12.9865 15.0185 13.0257C15.0712 13.065 15.1651 13.1203 15.2271 13.1485L15.3399 13.1998L15.4972 13.2379C15.5836 13.2587 15.7142 13.2835 15.7873 13.2929C15.8603 13.3023 16.015 13.311 16.131 13.3123ZM16.4923 10.61C15.9613 10.61 15.5268 10.6063 15.5268 10.6016C15.5268 10.597 15.5495 10.5301 15.5772 10.4529C15.6048 10.3758 15.6535 10.2611 15.6852 10.1979L15.743 10.083L15.8698 9.95683L15.9967 9.83055L16.1215 9.77097C16.19 9.73817 16.2807 9.70244 16.3228 9.69159C16.3651 9.68075 16.4859 9.66637 16.5914 9.65968L16.7833 9.64734L16.9306 9.66632L17.0779 9.68523L17.1849 9.73424L17.292 9.78325L17.3507 9.84659C17.383 9.88138 17.4215 9.93266 17.4362 9.96048L17.463 10.0111L17.4807 10.1235L17.4985 10.2359L17.4782 10.423L17.4579 10.61H16.4923Z" fill="#B3131B"/>
<path d="M10.7843 15.0029L10.7959 14.9726C10.8024 14.9559 10.8076 14.9166 10.8076 14.8854C10.8076 14.8541 10.8212 14.7405 10.8378 14.6328C10.8544 14.5251 10.8934 14.2773 10.9245 14.0821C10.9555 13.8869 11.002 13.5934 11.0277 13.4299C11.0535 13.2664 11.085 13.057 11.0977 12.9647C11.1104 12.8724 11.1258 12.7969 11.1321 12.7969C11.1382 12.7969 11.1649 12.8377 11.1913 12.8876L11.2392 12.9782L11.3455 13.0854L11.4519 13.1925L11.5827 13.2449L11.7137 13.2973L11.8697 13.3175L12.0257 13.3377L12.2237 13.3256L12.4217 13.3134L12.6361 13.258L12.8505 13.2024L12.9656 13.15C13.0289 13.121 13.1411 13.058 13.2149 13.0099L13.3492 12.9225L13.4744 12.7973C13.5433 12.7286 13.6404 12.6182 13.6902 12.5521C13.7401 12.486 13.7808 12.4272 13.7808 12.4213C13.7808 12.4154 13.8053 12.3745 13.8353 12.3304C13.8652 12.2863 13.9264 12.1638 13.9713 12.0583C14.0162 11.9528 14.0864 11.7629 14.1273 11.6363L14.2017 11.4061L14.2401 11.2067C14.2612 11.0971 14.2884 10.9158 14.3006 10.8039L14.3225 10.6005L14.3098 10.4279L14.2971 10.2552L14.2571 10.0825L14.2171 9.90988L14.1523 9.78066L14.0875 9.65139L13.9623 9.51869L13.8372 9.38599L13.541 9.23298L13.378 9.19388L13.2149 9.15488L13.0519 9.14293L12.8889 9.13098L12.7073 9.15184L12.5256 9.17269L12.3774 9.21058L12.2291 9.24836L12.1003 9.30805C12.0295 9.34074 11.9264 9.39644 11.8713 9.43173C11.8162 9.46702 11.7592 9.50757 11.7449 9.5219C11.7305 9.53622 11.6961 9.56283 11.6684 9.58086L11.618 9.61388L11.6532 9.44534C11.6726 9.35269 11.6888 9.26612 11.6892 9.25284L11.69 9.22889H10.9866L10.925 9.61737C10.8911 9.83105 10.8375 10.1612 10.806 10.3511C10.7745 10.541 10.7268 10.8258 10.7003 10.9841C10.6737 11.1424 10.6263 11.4229 10.5949 11.6076C10.5635 11.7921 10.5117 12.0857 10.4797 12.2598C10.4477 12.4339 10.4008 12.6885 10.3755 12.8257C10.3502 12.9628 10.3025 13.2218 10.2697 13.4011C10.2368 13.5806 10.1839 13.8654 10.1522 14.0342C10.1204 14.203 10.0688 14.4706 10.0375 14.6288C10.006 14.7871 9.97574 14.9361 9.96993 14.9597L9.95947 15.0029H10.7843ZM11.9873 12.7947L11.8827 12.7762L11.7779 12.7577L11.6716 12.7092L11.5653 12.6606L11.491 12.5896L11.4167 12.5188L11.3739 12.4229C11.3503 12.3701 11.32 12.2805 11.3066 12.2237L11.2821 12.1204L11.2919 11.9551L11.3018 11.7898L11.3511 11.5308C11.3783 11.3884 11.4271 11.1208 11.4596 10.9362C11.492 10.7516 11.5413 10.481 11.5689 10.335L11.619 10.0695L11.729 9.97797C11.7895 9.92769 11.8853 9.8602 11.9419 9.82812L12.0448 9.76971L12.1791 9.72817L12.3134 9.68657L12.6586 9.66632L12.7992 9.6963L12.9398 9.72623L13.039 9.77192L13.1382 9.81761L13.2214 9.90125L13.3046 9.98488L13.3494 10.0734C13.3742 10.1222 13.4088 10.2175 13.4265 10.2853L13.4586 10.4086L13.4488 10.7731L13.4389 11.1376L13.3897 11.3531C13.3626 11.4715 13.3111 11.6528 13.2751 11.7559L13.2098 11.9433L13.1297 12.0949C13.0857 12.1784 13.0178 12.2911 12.9788 12.3455C12.9399 12.3998 12.8778 12.4704 12.8408 12.502C12.804 12.5338 12.7421 12.5834 12.7034 12.6122L12.6331 12.6647L12.3076 12.7754L11.9873 12.7947Z" fill="#B3131B"/>
</svg>
